<?xml version="1.0" encoding="UTF-8"?>
<svg xmlns="http://www.w3.org/2000/svg" viewBox="0 0 1024 1024">
  <rect x="379.01" y="821.25" width="265.23" height="26.33" rx="13.17" ry="13.17" fill="#2e131f"/>
  <path d="M511.64,599.97c74.55-43.13,124.71-123.74,124.71-216.07,0-92.33-50.17-172.95-124.73-216.08-74.56,43.13-124.73,123.74-124.73,216.08s50.16,172.93,124.71,216.07h.04Z" fill="#f8b523"/>
  <path d="M520.9,586.81l9.47,141.15c0,61.47,44.55,111.3,106.02,111.3h-249.5c61.47,0,106.53-49.83,106.53-111.3l8.08-141.15h19.4Z" fill="#2e131f"/>
  <path d="M542.03,821.24c-8.99-15.97-19.21-29.83-30.39-41.12-11.17,11.29-21.39,25.16-30.39,41.13h60.77Z" fill="#ffffff"/>
  <path d="M441.22,383.91c0-92.33,24.8-170.48,70.4-216.08-74.56,43.13-124.73,123.74-124.73,216.08s50.16,172.93,124.71,216.07h.04c5.02-2.91,9.91-6.01,14.7-9.25-63.4-44.83-85.13-120.71-85.13-206.82Z" fill="#ffffff"/>
  <path d="M511.63,404.43c0-54.49,43.41-119.87,78.99-164.33-5.18-7.33-10.69-14.42-16.61-21.13-26.71,32.26-60.44,78.69-76.8,124.12,8.8,20.88,14.42,41.81,14.42,61.34Z" fill="#c45334"/>
  <path d="M511.64,599.97c74.55-43.13,124.71-123.74,124.71-216.07,0-92.33-50.17-172.95-124.73-216.08-74.56,43.13-124.73,123.74-124.73,216.08s50.16,172.93,124.71,216.07h.04Z" fill="none" stroke="#2e131f" stroke-width="18" stroke-miterlimit="10"/>
  <path d="M511.63,404.43c0-92.32-124.71-216.08-124.71-216.08-74.56,43.13-124.73,123.74-124.73,216.08,0,137.76,111.68,249.44,249.44,249.44,137.76,0,249.44-111.68,249.44-249.44,0-92.33-50.17-172.95-124.73-216.08,0,0-124.71,123.76-124.71,216.08" fill="#f8b523"/>
  <path d="M321.78,404.43c0-79.38,31.49-144.38,89.27-190.06-9.42-7.45-13.68-19.95-24.12-26v-.02c-74.57,43.13-124.74,123.74-124.74,216.08,0,137.76,105.58,241.57,241.57,241.57-97.67-44.42-181.98-123.39-181.98-241.57Z" fill="#ffe0a0"/>
  <path d="M287.13,404.43c0-92.33,46.04-174.24,99.8-216.06v-.02c-74.57,43.13-124.74,123.74-124.74,216.08,0,137.76,111.68,249.44,249.44,249.44-98.39,0-224.5-111.68-224.5-249.44Z" fill="#ffffff"/>
  <path d="M636.35,188.35v.02s-28.21,30.68-28.21,30.68c59.49,49.74,88.19,120.34,82.12,203.59-8.7,119.18-99.79,212.61-213.46,228.76,11.39,1.59,23.01,2.47,34.84,2.47,137.76,0,249.44-111.68,249.44-249.44,0-92.33-50.17-172.95-124.73-216.08Z" fill="#c45334"/>
  <path d="M511.63,404.43c0-92.32-124.71-216.08-124.71-216.08-74.56,43.13-124.73,123.74-124.73,216.08,0,137.76,111.68,249.44,249.44,249.44,137.76,0,249.44-111.68,249.44-249.44,0-92.33-50.17-172.95-124.73-216.08,0,0-124.71,123.76-124.71,216.08" fill="none" stroke="#2e131f" stroke-width="18" stroke-miterlimit="10"/>
</svg>
