<svg width="640" height="360" viewBox="0 0 640 360" fill="none" xmlns="http://www.w3.org/2000/svg" role="img" aria-label="">
  <rect width="640" height="360" rx="20" fill="#FFF1E3"/>
  <rect x="48" y="56" width="544" height="12" rx="6" fill="#E8DDD6"/>
  <rect x="48" y="88" width="420" height="28" rx="14" fill="#573A45" fill-opacity="0.85"/>
  <rect x="48" y="136" width="544" height="56" rx="16" fill="#FFFFFF" stroke="#E8DDD6" stroke-width="2"/>
  <circle cx="76" cy="164" r="10" fill="#F9B527"/>
  <rect x="96" y="152" width="180" height="12" rx="6" fill="#D6C5CB"/>
  <rect x="96" y="172" width="120" height="10" rx="5" fill="#E4D7DB"/>
  <rect x="48" y="208" width="544" height="56" rx="16" fill="#FFFFFF" stroke="#E8DDD6" stroke-width="2"/>
  <circle cx="76" cy="236" r="10" fill="#7CA982"/>
  <rect x="96" y="224" width="220" height="12" rx="6" fill="#D6C5CB"/>
  <rect x="96" y="244" width="140" height="10" rx="5" fill="#E4D7DB"/>
  <rect x="48" y="280" width="544" height="56" rx="16" fill="#FFFFFF" stroke="#E8DDD6" stroke-width="2"/>
  <circle cx="76" cy="308" r="10" fill="#E4D7DB"/>
  <rect x="96" y="296" width="160" height="12" rx="6" fill="#D6C5CB"/>
  <rect x="96" y="316" width="100" height="10" rx="5" fill="#E4D7DB"/>
  <path d="M520 136 L520 336" stroke="#F9B527" stroke-width="3" stroke-dasharray="6 8" stroke-linecap="round"/>
</svg>
