<svg width="640" height="360" viewBox="0 0 640 360" fill="none" xmlns="http://www.w3.org/2000/svg">
  <rect width="640" height="360" rx="20" fill="#FFF1E3"/>
  <rect x="100" y="80" width="180" height="200" rx="20" fill="#FFFFFF" stroke="#E8DDD6" stroke-width="2"/>
  <rect x="124" y="104" width="132" height="80" rx="12" fill="#FCE5BE"/>
  <rect x="124" y="196" width="80" height="12" rx="6" fill="#573A45" fill-opacity="0.7"/>
  <rect x="124" y="216" width="100" height="10" rx="5" fill="#D6C5CB"/>
  <rect x="124" y="244" width="72" height="24" rx="12" fill="#F9B527"/>
  <rect x="360" y="80" width="180" height="200" rx="20" fill="#FFFFFF" stroke="#E8DDD6" stroke-width="2"/>
  <rect x="384" y="104" width="132" height="80" rx="12" fill="#E4D7DB"/>
  <rect x="384" y="196" width="90" height="12" rx="6" fill="#573A45" fill-opacity="0.7"/>
  <rect x="384" y="216" width="110" height="10" rx="5" fill="#D6C5CB"/>
  <rect x="384" y="244" width="72" height="24" rx="12" fill="#7CA982" fill-opacity="0.55"/>
  <path d="M280 180 L320 160 L360 180 L320 200 Z" fill="#573A45" fill-opacity="0.2"/>
  <circle cx="320" cy="180" r="20" fill="#573A45"/>
  <path d="M312 180 L318 186 L328 174" stroke="#FFFBF3" stroke-width="2.5" stroke-linecap="round" stroke-linejoin="round"/>
</svg>
